<svg version="1.1" id="Layer_1" xmlns="http://www.w3.org/2000/svg" xmlns:xlink="http://www.w3.org/1999/xlink" x="0px" y="0px"
	 width="100%" viewBox="0 0 1024 1024" enable-background="new 0 0 1024 1024" xml:space="preserve">
<path fill="#000000" opacity="1.000000" stroke="none" 
	d="
M588.680054,570.755371 
	C588.681091,549.787720 588.714600,529.290833 588.670654,508.794098 
	C588.631226,490.396057 574.198486,475.963165 556.057007,476.084656 
	C537.997437,476.205597 524.104980,490.410828 524.059937,508.802155 
	C524.010559,528.957581 537.818604,542.782959 557.928772,542.706970 
	C559.761658,542.700012 561.594360,542.643677 563.427246,542.631042 
	C574.921631,542.551697 582.085754,549.338135 582.763977,560.941101 
	C583.356506,571.076782 575.937073,579.221130 565.178833,580.244690 
	C525.410950,584.028259 492.062561,558.364502 487.060059,518.781006 
	C480.832245,469.502289 519.327576,438.135590 556.384155,438.573578 
	C595.565002,439.036682 626.149109,469.079529 626.262085,508.286743 
	C626.323059,529.449951 626.351685,550.613831 626.257568,571.776794 
	C626.102600,606.610718 601.782593,636.161255 567.532288,642.816650 
	C561.554993,643.978149 555.367920,644.612183 549.151917,643.641602 
	C538.276978,641.943481 531.476868,634.188904 532.086853,623.850037 
	C532.714417,613.214966 539.985168,606.293030 551.062439,605.780334 
	C554.546875,605.619019 558.045227,606.005432 561.514221,605.214905 
	C577.312378,601.614807 588.129028,588.116760 588.680054,570.755371 
z"/>
<path fill="#000000" opacity="1.000000" stroke="none" 
	d="
M684.958496,534.044800 
	C704.276489,551.528748 732.146240,540.984192 737.996582,519.052673 
	C738.871887,515.771545 738.964233,512.484619 738.957947,509.159637 
	C738.891296,473.672150 738.782288,438.184662 738.754456,402.697144 
	C738.744751,390.273499 746.189514,382.610413 757.985962,382.649078 
	C768.389099,382.683197 776.217834,390.340454 776.330750,400.975464 
	C776.484436,415.468872 776.399170,429.964996 776.393127,444.459930 
	C776.383850,466.952087 776.361328,489.444275 776.333008,511.936432 
	C776.290588,545.542725 751.832458,573.632202 720.295776,579.201416 
	C684.544739,585.514771 652.395325,566.878052 641.509827,533.910156 
	C627.338257,490.990082 651.172791,446.613678 697.489929,439.225677 
	C707.213867,437.674652 717.079468,438.204407 726.686829,441.020874 
	C730.649109,442.182465 732.660278,444.144623 732.532715,448.788727 
	C732.191284,461.223969 732.416382,473.674805 732.416382,485.847137 
	C730.669922,486.740204 729.966736,485.837952 729.288452,485.188080 
	C715.978882,472.436218 696.656128,473.336700 684.320496,485.592560 
	C672.102722,497.731323 671.436096,517.564514 682.678589,531.586304 
	C683.302185,532.364136 684.024780,533.062561 684.958496,534.044800 
z"/>
<path fill="#000000" opacity="1.000000" stroke="none" 
	d="
M315.714630,474.411682 
	C321.621277,485.180908 324.209259,496.429840 324.251740,508.278473 
	C324.314484,525.776367 324.387878,543.275513 324.242340,560.772278 
	C324.156281,571.119568 316.996185,578.724060 306.744537,579.900513 
	C297.931580,580.911865 289.415466,574.696777 287.209045,565.482849 
	C286.750977,563.569946 286.712006,561.525024 286.706940,559.540283 
	C286.664398,542.875549 286.712280,526.210510 286.659393,509.545807 
	C286.600098,490.860138 273.535004,476.530396 254.870605,475.796539 
	C239.406998,475.188477 224.309540,486.005615 221.502777,504.804504 
	C218.977173,521.720459 230.523041,538.878540 247.384674,542.236206 
	C257.096283,544.170044 266.279724,542.151733 274.141846,535.658813 
	C275.423096,534.600647 276.708099,533.546814 278.004791,532.507751 
	C278.112396,532.421570 278.323456,532.464539 278.605530,532.435059 
	C280.385864,533.405273 279.964386,535.236328 279.970276,536.781921 
	C280.013000,547.946838 279.856537,559.114014 280.027252,570.276367 
	C280.089020,574.315002 278.427094,576.145874 274.656342,577.350464 
	C233.220840,590.586792 190.328217,562.983704 184.548218,519.241028 
	C179.693283,482.499207 199.808685,450.881348 234.887421,441.113861 
	C265.483398,432.594574 298.339233,444.342743 315.714630,474.411682 
z"/>
<path fill="#000000" opacity="1.000000" stroke="none" 
	d="
M444.893860,450.011353 
	C464.749542,464.025085 475.340057,482.623199 475.364838,506.835297 
	C475.382935,524.498596 475.400177,542.161987 475.346222,559.825073 
	C475.309784,571.748413 467.466888,580.134155 456.507812,580.126099 
	C445.378815,580.117981 437.721832,571.932983 437.690430,559.884705 
	C437.644867,542.388062 437.713623,524.891113 437.651245,507.394623 
	C437.595734,491.824585 426.309906,478.323853 411.814423,476.335022 
	C395.314056,474.071167 381.853760,482.889343 377.129486,498.915466 
	C376.354919,501.543030 376.261841,504.156677 376.259186,506.814514 
	C376.241333,524.644470 376.348816,542.475281 376.209656,560.304199 
	C376.102753,573.992310 364.038574,583.017456 351.340576,579.073914 
	C344.098236,576.824707 338.997009,571.676208 338.919434,564.357971 
	C338.667145,540.572815 336.553345,516.634216 339.867920,493.017426 
	C344.099396,462.867920 373.303436,439.043457 403.844910,438.578888 
	C418.666809,438.353455 432.167053,441.864868 444.893860,450.011353 
z"/>
<path fill="#000000" opacity="1.000000" stroke="none" 
	d="
M791.262146,527.453918 
	C790.106140,521.631226 789.697083,516.182190 789.721619,510.661011 
	C789.799438,493.172363 789.691895,475.682983 789.728638,458.194061 
	C789.752808,446.703979 797.566040,438.759125 808.691467,438.758484 
	C819.586853,438.757812 827.279968,446.579163 827.326416,457.881805 
	C827.399658,475.703705 827.293640,493.526642 827.417542,511.348022 
	C827.521179,526.252075 835.312744,537.510498 848.142700,541.713745 
	C865.796692,547.497437 885.378540,533.988708 885.707947,515.442139 
	C886.042114,496.626129 885.814270,477.800751 885.929260,458.980072 
	C886.023132,443.611389 899.385132,434.473389 912.948425,440.434967 
	C919.537964,443.331360 923.212891,448.548035 923.274719,455.626434 
	C923.462463,477.110962 924.209045,498.645996 923.066467,520.072205 
	C921.749329,544.773071 904.350403,569.321289 874.740845,578.130737 
	C838.107910,589.029846 798.728027,565.337158 791.262146,527.453918 
z"/>
<path fill="#000000" opacity="1.000000" stroke="none" 
	d="
M114.054977,606.919067 
	C126.799744,601.724915 133.597534,591.136353 133.622452,576.353455 
	C133.688995,536.865234 133.613129,497.376801 133.692459,457.888641 
	C133.722397,442.992889 148.371292,434.191803 161.555145,441.060669 
	C167.674500,444.248871 171.224380,449.549438 171.249771,456.320770 
	C171.408524,498.640656 171.691666,540.966248 171.160919,583.280212 
	C170.843689,608.571594 151.905762,633.602295 128.301102,642.100159 
	C117.459999,646.003052 107.381683,642.211182 103.545670,632.786072 
	C99.168419,622.031189 103.042427,612.223999 114.054977,606.919067 
z"/>
<path fill="#000000" opacity="1.000000" stroke="none" 
	d="
M157.337051,382.938049 
	C167.846771,386.757812 172.250000,393.532776 171.401199,404.038483 
	C170.703690,412.671967 164.802338,418.885559 155.531311,420.748047 
	C144.858963,422.892090 134.780319,414.930206 133.266373,403.159271 
	C131.935120,392.808899 140.371231,382.994720 150.951324,382.651581 
	C152.937119,382.587158 154.930908,382.768982 157.337051,382.938049 
z"/>
</svg>